# AST/ASF file generated using VICON BodyLanguage
# -----------------------------------------------
:version 1.10
:name VICON
:units
  mass 1.0
  length 0.45
  angle deg
:documentation
   .ast/.asf automatically generated from VICON data using
   VICON BodyBuilder and BodyLanguage model FoxedUp or BRILLIANT.MOD
:root
   order TX TY TZ RX RY RZ
   axis XYZ
   position 0 0 0  
   orientation 0 0 0 
:bonedata
  begin
     id 1 
     name lhipjoint
     direction 0.630305 -0.712092 0.309259 
     length 2.29033 
     axis 0 0 0  XYZ
  end
  begin
     id 2 
     name lfemur
     direction 0.34202 -0.939693 0  
     length 6.43538  
     axis 0 0 20  XYZ
    dof rx ry rz
    limits (-160.0 20.0)
           (-70.0 70.0)
           (-60.0 70.0)
  end
  begin
     id 3 
     name ltibia
     direction 0.34202 -0.939693 0   
     length 7.43097   
     axis 0 0 20   XYZ
    dof rx
    limits (-10.0 170.0)
  end
  begin
     id 4 
     name lfoot
     direction 0.0334653 -0.0919451 0.995202   
     length 1.78438   
     axis -90 7.62852e-016 20   XYZ
    dof rx rz
    limits (-45.0 90.0)
           (-70.0 20.0)
  end
  begin
     id 5 
     name ltoes
     direction 1.53535e-011 -4.21933e-011 1   
     length 0.90832   
     axis -90 7.62852e-016 20   XYZ
    dof rx
    limits (-90.0 20.0)
  end
  begin
     id 6 
     name rhipjoint
     direction -0.682059 -0.67077 0.291312   
     length 2.43143  
     axis 0 0 0  XYZ 
  end
  begin
     id 7 
     name rfemur
     direction -0.34202 -0.939693 0   
     length 6.63488   
     axis 0 0 -20   XYZ
    dof rx ry rz
    limits (-160.0 20.0)
           (-70.0 70.0)
           (-70.0 60.0)
  end
  begin
     id 8 
     name rtibia
     direction -0.34202 -0.939693 0   
     length 6.86532   
     axis 0 0 -20   XYZ
    dof rx
    limits (-10.0 170.0)
 end
 begin
     id 9 
     name rfoot
     direction -0.105199 -0.289033 0.951521   
     length 1.77126  
     axis -90 -7.62852e-016 -20   XYZ
    dof rx rz
    limits (-45.0 90.0)
           (-20.0 70.0)
  end
  begin
     id 10 
     name rtoes
     direction -1.53551e-011 -4.21978e-011 1   
     length 0.889273   
     axis -90 -7.62852e-016 -20   XYZ
    dof rx
    limits (-90.0 20.0)
  end
  begin
     id 11 
     name lowerback
     direction -0.0514305 0.998089 0.034245   
     length 2.02077   
     axis 0 0 0   XYZ
    dof rx ry rz
    limits (-20.0 45.0)
           (-30.0 30.0)
           (-30.0 30.0)
  end
  begin
     id 12 
     name upperback
     direction 0.0203189 0.999449 -0.0262315   
     length 2.01413   
     axis 0 0 0   XYZ
    dof rx ry rz
    limits (-20.0 45.0)
           (-30.0 30.0)
           (-30.0 30.0)
  end
  begin
     id 13 
     name thorax
     direction 0.0452736 0.998142 -0.0407729   
     length 2.02986   
     axis 0 0 0   XYZ
    dof rx ry rz
    limits (-20.0 45.0)
           (-30.0 30.0)
           (-30.0 30.0)
  end
  begin
     id 14 
     name lowerneck
     direction -0.0180464 0.999645 -0.0195774   
     length 1.59034   
     axis 0 0 0   XYZ
    dof rx ry rz
    limits (-20.0 45.0)
           (-30.0 30.0)
           (-30.0 30.0)
  end
  begin
     id 15 
     name upperneck
     direction 0.0732272 0.979935 -0.18538   
     length 1.57486   
     axis 0 0 0   XYZ
    dof rx ry rz
    limits (-20.0 45.0)
           (-30.0 30.0)
           (-30.0 30.0)
  end
  begin
     id 16
     name head
     direction 0.0252963 0.997909 -0.059472  
     length 1.60334  
     axis 0 0 0   XYZ
    dof rx ry rz
    limits (-20.0 45.0)
           (-30.0 30.0)
           (-30.0 30.0)
  end
  begin
     id 17 
     name lclavicle
     direction 0.943819 0.330449 0.00315172  
     length 3.50322  
     axis 0 0 0   XYZ
    dof ry rz
    limits (-20.0 10.0)
           (0.0 20.0)
  end
  begin
     id 18 
     name lhumerus
     direction 1 -4.48949e-011 2.22502e-028   
     length 4.63208   
     axis 180 -30 -90   XYZ
    dof rx ry rz
    limits (-60.0 90.0)
           (-90.0 90.0)
           (-90.0 90.0)
  end
  begin
     id 19
     name lradius
     direction 1 -4.48967e-011 -4.10197e-027   
     length 3.41924   
     axis 180 -30 -90   XYZ
    dof rx
    limits (-10.0 170.0)
  end
  begin
     id 20
     name lwrist
     direction 1 -4.48987e-011 -1.24264e-027   
     length 1.70962   
     axis 2.50585e-015 90 90   XYZ
    dof ry
    limits (-180.0 0.0)
 end
  begin
     id 21 
     name lhand
     direction 1 -4.48983e-011 -2.48528e-027   
     length 0.62537   
     axis 1.58582e-015 90 90   XYZ
    dof rx rz
    limits (-90.0 90.0)
           (-45.0 45.0)
  end
  begin
     id 22 
     name lfingers
     direction 1 -4.48896e-011 -4.97056e-027   
     length 0.50419   
     axis 3.17164e-015 90 90   XYZ
    dof rx
    limits (0.0 90.0)
  end
  begin
     id 23
     name lthumb
     direction 0.707107 -6.34803e-011 0.707107   
     length 0.723919   
     axis -90 45 2.85299e-015   XYZ
    dof rx rz
    limits (-45.0 45.0)
           (-45.0 45.0)
  end
  begin
     id 24 
     name rclavicle
     direction -0.964499 0.260664 -0.0423695   
     length 3.91997  
     axis 0 0 0   XYZ 
    dof ry rz
    limits (-10.0 20.0)
           (-20.0 0.0)
  end
  begin
     id 25 
     name rhumerus
     direction -1 -4.48957e-011 -1.98656e-027  
     length 4.4064   
     axis 180 30 90   XYZ
    dof rx ry rz
    limits (-90.0 60.0)
           (-90.0 90.0)
           (-90.0 90.0)
  end
  begin
     id 26 
     name rradius
     direction -1 -4.48968e-011 1.96972e-027   
     length 3.44675   
     axis 180 30 90   XYZ
    dof rx
    limits (-10.0 170.0)
  end
  begin
     id 27 
     name rwrist
     direction -1 -4.48974e-011 -1.24264e-027   
     length 1.72338   
     axis 2.50585e-015 -90 -90   XYZ
    dof ry
    limits (-180.0 0.0)
  end
  begin
     id 28
     name rhand
     direction -1 -4.48901e-011 -2.48528e-027   
     length 0.513674   
     axis 1.58582e-015 -90 -90   XYZ
    dof rx rz
    limits (-90.0 90.0)
           (-45.0 45.0)
  end
  begin
     id 29
     name rfingers
     direction -1 -4.48946e-011 -4.97056e-027   
     length 0.414137   
     axis 3.17164e-015 -90 -90   XYZ
    dof rx
    limits (0.0 90.0)
  end
  begin
     id 30
     name rthumb
     direction -0.707107 -6.34859e-011 0.707107   
     length 0.59462   
     axis -90 -45 -2.85299e-015   XYZ
    dof rx rz
    limits (-45.0 45.0)
           (-45.0 45.0)
  end
:hierarchy
  begin
    root lhipjoint rhipjoint lowerback
    lhipjoint lfemur
    lfemur ltibia
    ltibia lfoot
    lfoot ltoes
    rhipjoint rfemur
    rfemur rtibia
    rtibia rfoot
    rfoot rtoes
    lowerback upperback
    upperback thorax
    thorax lowerneck lclavicle rclavicle
    lowerneck upperneck
    upperneck head
    lclavicle lhumerus
    lhumerus lradius
    lradius lwrist
    lwrist lhand lthumb
    lhand lfingers
    rclavicle rhumerus
    rhumerus rradius
    rradius rwrist
    rwrist rhand rthumb
    rhand rfingers
  end

#!OML:ASF E:\inclinewalkrobotboard\Project 1\Capture day 1\Session 1\subject1.ASF
:FULLY-SPECIFIED
:DEGREES
163
root 9.81879 12.7444 -8.77355 1.09918 3.15104 3.1835
lowerback 13.3375 1.26142 -5.36539
upperback 8.7882 1.12304 1.35004
thorax 1.68444 0.314553 4.30584
lowerneck -9.04369 1.1456 -1.20495
upperneck 23.7727 1.46596 1.56496
head 8.88636 0.748829 0.886479
rclavicle -2.38542e-015 6.75868e-015
rhumerus 49.9093 25.6254 -12.0656
rradius 57.756
rwrist 4.54049
rhand -26.4525 -28.1017
rfingers 7.12502
rthumb 0.108735 -58.0814
lclavicle -2.38542e-015 6.75868e-015
lhumerus 57.2729 -25.4153 13.5327
lradius 50.1904
lwrist -23.4748
lhand -43.1105 -33.3072
lfingers 7.12502
lthumb -15.9648 -3.94508
rfemur -43.0502 -6.36608 13.6485
rtibia 0
rfoot 0 0
rtoes 0
lfemur -46.1576 -2.77026 -16.6118
ltibia 0
lfoot 0 0
ltoes 0
164
root 9.81822 12.743 -8.77425 1.06145 3.0898 2.97652
lowerback 13.3288 1.28015 -5.1891
upperback 8.79873 1.16632 1.41039
thorax 1.6949 0.341207 4.26455
lowerneck -9.0331 1.14576 -1.30414
upperneck 23.6667 1.46279 1.65778
head 8.84606 0.748442 0.933236
rclavicle -3.97569e-016 1.31198e-014
rhumerus 49.8314 25.6208 -12.1227
rradius 57.8453
rwrist 4.58301
rhand -26.4073 -28.3736
rfingers 7.12502
rthumb 0.152369 -58.3533
lclavicle -3.97569e-016 1.31198e-014
lhumerus 57.318 -25.4073 13.579
lradius 50.1654
lwrist -23.2589
lhand -42.9226 -33.5299
lfingers 7.12502
lthumb -15.7838 -4.15341
rfemur -43.0316 -6.23646 13.9046
rtibia 0
rfoot 0 0
rtoes 0
lfemur -46.1773 -2.64967 -16.3673
ltibia 0
lfoot 0 0
ltoes 0
165
root 9.81665 12.7396 -8.7735 0.978787 2.98038 2.65172
lowerback 13.3157 1.3011 -4.92983
upperback 8.8437 1.22162 1.5074
thorax 1.74323 0.374487 4.21386
lowerneck -9.11216 1.13636 -1.33778
upperneck 23.6897 1.4727 1.59134
head 8.86903 0.74343 0.918419
rclavicle 1.72943e-014 7.95139e-015
rhumerus 49.8179 25.609 -12.0686
rradius 57.9491
rwrist 4.47457
rhand -26.4931 -28.6243
rfingers 7.12502
rthumb 0.0694899 -58.604
lclavicle 1.72943e-014 7.95139e-015
lhumerus 57.3368 -25.3531 13.5942
lradius 50.1695
lwrist -23.087
lhand -42.7813 -33.9165
lfingers 7.12502
lthumb -15.6478 -4.5293
rfemur -42.9858 -6.01782 14.3062
rtibia 0
rfoot 0 0
rtoes 0
lfemur -46.155 -2.43319 -15.9703
ltibia 0
lfoot 0 0
ltoes 0
166
root 9.81788 12.7386 -8.77338 0.952839 2.98409 2.60501
lowerback 13.2963 1.30215 -4.88356
upperback 8.85318 1.22892 1.50817
thorax 1.76308 0.379324 4.1879
lowerneck -9.04861 1.14465 -1.36775
upperneck 23.5812 1.47618 1.64665
head 8.81885 0.748312 0.94083
rclavicle -1.2921e-014 -1.47101e-014
rhumerus 49.7635 25.628 -12.0676
rradius 58.0017
rwrist 4.39308
rhand -26.6592 -28.5956
rfingers 7.12502
rthumb -0.0909346 -58.5753
lclavicle -1.2921e-014 -1.47101e-014
lhumerus 57.2861 -25.358 13.6838
lradius 50.2099
lwrist -23.1658
lhand -42.796 -33.8061
lfingers 7.12502
lthumb -15.6619 -4.42006
rfemur -42.9513 -6.00165 14.3518
rtibia 0
rfoot 0 0
rtoes 0
lfemur -46.1239 -2.42495 -15.9185
ltibia 0
lfoot 0 0
ltoes 0
167
root 9.81933 12.738 -8.77336 0.955107 3.02916 2.71038
lowerback 13.3205 1.30688 -4.95679
upperback 8.83729 1.22635 1.4478
thorax 1.73406 0.377875 4.16557
lowerneck -9.07716 1.17746 -1.21561
upperneck 23.5298 1.50321 1.60789
head 8.80778 0.770355 0.904329
rclavicle 7.35503e-015 2.42517e-014
rhumerus 49.6677 25.6153 -12.1913
rradius 57.9687
rwrist 4.54072
rhand -26.676 -28.4123
rfingers 7.12502
rthumb -0.107203 -58.392
lclavicle 7.35503e-015 2.42517e-014
lhumerus 57.1348 -25.3834 13.9514
lradius 50.2643
lwrist -23.4842
lhand -42.7717 -33.5395
lfingers 7.12502
lthumb -15.6385 -4.15157
rfemur -42.9435 -6.06733 14.2113
rtibia 0
rfoot 0 0
rtoes 0
lfemur -46.1061 -2.50679 -16.0583
ltibia 0
lfoot 0 0
ltoes 0
168
root 9.82071 12.7379 -8.77296 0.944239 3.03919 2.80002
lowerback 13.3479 1.3098 -5.04986
upperback 8.82488 1.21898 1.4153
thorax 1.70712 0.372238 4.18446
lowerneck -9.07939 1.22489 -1.09393
upperneck 23.4837 1.56808 1.51639
head 8.7934 0.801968 0.858779
rclavicle -7.95139e-016 -5.96354e-015
rhumerus 49.6341 25.6197 -12.2159
rradius 57.9709
rwrist 4.65399
rhand -26.6702 -28.3722
rfingers 7.12502
rthumb -0.101589 -58.3519
lclavicle -7.95139e-016 -5.96354e-015
lhumerus 57.1047 -25.4083 13.998
lradius 50.2736
lwrist -23.5183
lhand -42.71 -33.5087
lfingers 7.12502
lthumb -15.579 -4.11611
rfemur -42.9269 -6.08319 14.0933
rtibia 0
rfoot 0 0
rtoes 0
lfemur -46.0829 -2.55368 -16.1751
ltibia 0
lfoot 0 0
ltoes 0
169
root 9.82307 12.7384 -8.77303 0.865716 3.04546 2.9415
lowerback 13.3816 1.3307 -5.19518
upperback 8.85346 1.23034 1.38852
thorax 1.71843 0.37179 4.2371
lowerneck -9.03469 1.24429 -1.10569
upperneck 23.3964 1.6085 1.46763
head 8.7549 0.815166 0.847008
rclavicle 6.55989e-015 -7.95139e-015
rhumerus 49.6321 25.6549 -12.0965
rradius 58.0208
rwrist 4.48611
rhand -26.8098 -28.548
rfingers 7.12502
rthumb -0.236428 -58.5276
lclavicle 6.55989e-015 -7.95139e-015
lhumerus 57.3231 -25.4405 13.761
lradius 50.1981
lwrist -23.2827
lhand -42.6822 -33.3434
lfingers 7.12502
lthumb -15.5523 -3.94879
rfemur -42.8211 -6.11057 13.9041
rtibia 0
rfoot 0 0
rtoes 0
lfemur -45.958 -2.61665 -16.3514
ltibia 0
lfoot 0 0
ltoes 0
170
root 9.8236 12.7416 -8.77671 0.900842 3.05434 2.73923
lowerback 13.3322 1.33682 -5.00096
upperback 8.84708 1.26097 1.45038
thorax 1.73429 0.393224 4.18912
lowerneck -8.98421 1.23465 -1.06669
upperneck 23.2638 1.60957 1.37498
head 8.70136 0.810135 0.807428
rclavicle 9.74045e-015 -2.18663e-014
rhumerus 49.6118 25.6675 -11.9896
rradius 58.0368
rwrist 4.38356
rhand -26.9491 -28.7321
rfingers 7.12502
rthumb -0.370897 -58.7115
lclavicle 9.74045e-015 -2.18663e-014
lhumerus 57.51 -25.4602 13.6497
lradius 50.1074
lwrist -23.1697
lhand -42.7046 -33.0553
lfingers 7.12502
lthumb -15.5739 -3.66231
rfemur -42.8286 -6.06577 14.142
rtibia 0
rfoot 0 0
rtoes 0
lfemur -46.0579 -2.57476 -16.1194
ltibia 0
lfoot 0 0
ltoes 0
171
root 9.82367 12.7436 -8.78047 0.943835 3.04496 2.6827
lowerback 13.3436 1.35204 -5.00004
upperback 8.7916 1.27942 1.4974
thorax 1.66608 0.404253 4.23519
lowerneck -8.85581 1.20996 -0.970326
upperneck 23.1269 1.59002 1.23126
head 8.63337 0.795183 0.738254
rclavicle -1.23246e-014 -1.98785e-014
rhumerus 49.6056 25.7386 -11.903
rradius 58.027
rwrist 4.48912
rhand -27.0478 -28.8205
rfingers 7.12502
rthumb -0.466257 -58.7997
lclavicle -1.23246e-014 -1.98785e-014
lhumerus 57.4927 -25.5299 13.7203
lradius 50.0555
lwrist -23.1602
lhand -42.7789 -33.0349
lfingers 7.12502
lthumb -15.6455 -3.64751
rfemur -42.8786 -6.03707 14.2211
rtibia 0
rfoot 0 0
rtoes 0
lfemur -46.1353 -2.53941 -16.0522
ltibia 0
lfoot 0 0
ltoes 0
172
root 9.82618 12.7423 -8.77801 0.880985 3.08063 2.84271
lowerback 13.3639 1.34934 -5.20137
upperback 8.80562 1.25446 1.48731
thorax 1.67246 0.383338 4.34168
lowerneck -8.90585 1.20018 -0.987531
upperneck 23.1108 1.57591 1.24796
head 8.63698 0.788779 0.745695
rclavicle 2.38542e-015 7.55382e-015
rhumerus 49.7854 25.7787 -11.65
rradius 57.937
rwrist 4.60153
rhand -27.0004 -28.9157
rfingers 7.12502
rthumb -0.420472 -58.8951
lclavicle 2.38542e-015 7.55382e-015
lhumerus 57.427 -25.5651 13.7358
lradius 50.0481
lwrist -23.1446
lhand -42.7787 -32.9622
lfingers 7.12502
lthumb -15.6452 -3.57484
rfemur -42.8078 -6.12769 14.0111
rtibia 0
rfoot 0 0
rtoes 0
lfemur -46.0091 -2.63749 -16.2527
ltibia 0
lfoot 0 0
ltoes 0
173
root 9.82643 12.7436 -8.78196 0.929112 3.05845 2.64096
lowerback 13.2489 1.33688 -5.04007
upperback 8.85586 1.2615 1.54445
thorax 1.78648 0.387619 4.31167
lowerneck -9.17662 1.20786 -0.870152
upperneck 23.1585 1.59142 1.14288
head 8.70569 0.795312 0.69485
rclavicle 0 -3.18055e-015
rhumerus 49.9602 25.6687 -11.4474
rradius 57.8385
rwrist 4.74309
rhand -26.9039 -29.0107
rfingers 7.12502
rthumb -0.327261 -58.9902
lclavicle 0 -3.18055e-015
lhumerus 57.3653 -25.466 13.7828
lradius 50.0702
lwrist -23.2496
lhand -42.7583 -32.396
lfingers 7.12502
lthumb -15.6256 -3.00711
rfemur -42.916 -6.0533 14.2611
rtibia 0
rfoot 0 0
rtoes 0
lfemur -46.1259 -2.56497 -16.0135
ltibia 0
lfoot 0 0
ltoes 0
174
root 9.83148 12.7425 -8.77486 0.778013 3.08995 3.03362
lowerback 13.2702 1.34732 -5.40843
upperback 8.96019 1.23906 1.43132
thorax 1.88998 0.358819 4.40472
lowerneck -9.01331 1.31762 -0.907125
upperneck 22.8835 1.71722 1.27842
head 8.57797 0.865145 0.755054
rclavicle 4.96962e-015 -2.50469e-014
rhumerus 49.9487 25.5976 -11.4985
rradius 57.8313
rwrist 4.747
rhand -26.8886 -29.0132
rfingers 7.12502
rthumb -0.312475 -58.9928
lclavicle 4.96962e-015 -2.50469e-014
lhumerus 57.2645 -25.386 13.9495
lradius 50.0465
lwrist -23.373
lhand -42.7112 -32.1137
lfingers 7.12502
lthumb -15.5802 -2.72128
rfemur -42.6855 -6.16954 13.7425
rtibia 0
rfoot 0 0
rtoes 0
lfemur -45.7924 -2.74405 -16.511
ltibia 0
lfoot 0 0
ltoes 0
175
root 9.82936 12.7464 -8.78542 0.859706 3.04737 2.66994
lowerback 13.4126 1.33303 -5.12563
upperback 8.82308 1.23845 1.54817
thorax 1.66643 0.37641 4.36452
lowerneck -9.0688 1.3237 -0.890087
upperneck 22.9517 1.7374 1.21534
head 8.61219 0.869542 0.734161
rclavicle 1.19271e-015 -5.1684e-015
rhumerus 49.9638 25.7275 -11.4759
rradius 57.8238
rwrist 4.6315
rhand -26.8796 -29.0174
rfingers 7.12502
rthumb -0.303804 -58.997
lclavicle 1.19271e-015 -5.1684e-015
lhumerus 57.2115 -25.4545 14.0319
lradius 49.9411
lwrist -23.2779
lhand -42.6372 -32.7488
lfingers 7.12502
lthumb -15.509 -3.35081
rfemur -42.8374 -5.99203 14.2093
rtibia 0
rfoot 0 0
rtoes 0
lfemur -46.0325 -2.59107 -16.0702
ltibia 0
lfoot 0 0
ltoes 0
176
root 9.83227 12.7456 -8.78016 0.864148 3.03176 2.69145
lowerback 13.3772 1.32957 -5.19516
upperback 8.7924 1.22788 1.57285
thorax 1.65306 0.368592 4.43144
lowerneck -8.87418 1.35498 -0.804486
upperneck 22.7702 1.80869 1.01738
head 8.51666 0.890987 0.656628
rclavicle -8.74653e-015 3.18055e-015
rhumerus 50.0467 25.8862 -11.2707
rradius 57.7258
rwrist 5.02633
rhand -26.9606 -29.4804
rfingers 7.12502
rthumb -0.382003 -59.4598
lclavicle -8.74653e-015 3.18055e-015
lhumerus 57.1684 -25.4867 14.0911
lradius 49.8458
lwrist -23.1804
lhand -42.6241 -33.3893
lfingers 7.12502
lthumb -15.4964 -3.99029
rfemur -42.7961 -5.97797 14.1578
rtibia 0
rfoot 0 0
rtoes 0
lfemur -45.9859 -2.59437 -16.1173
ltibia 0
lfoot 0 0
ltoes 0
